<?xml version="1.0" encoding="utf-8"?>
<!-- Generator: Adobe Illustrator 21.1.0, SVG Export Plug-In . SVG Version: 6.00 Build 0)  -->
<svg version="1.1" id="Layer_1" xmlns="http://www.w3.org/2000/svg" xmlns:xlink="http://www.w3.org/1999/xlink" x="0px" y="0px"
	 viewBox="0 0 448.5 93.5" style="enable-background:new 0 0 448.5 93.5;" xml:space="preserve">
<style type="text/css">
	.st0{fill:#0070FF;}
</style>
<polygon class="st0" points="15.5,1.9 44.6,46.9 73.8,1.9 87.9,1.9 87.9,91.3 72.6,91.3 72.6,31.3 44.6,73.8 16.7,31.3 16.7,91.3 
	1.4,91.3 1.4,1.9 "/>
<polygon class="st0" points="375.7,30.8 393.7,30.8 406.1,49.5 418.2,30.8 435.7,30.8 414.7,60.1 437,91.3 418.8,91.3 405.1,70.7 
	391.4,91.3 374.1,91.3 396.5,60.1 "/>
<path class="st0" d="M139.3,51.4c0,0-4.5-8.4-14.3-8.4c-10.3,0-16.7,7.5-16.7,17.5c0,10,6.4,17.5,16.7,17.5c9.8,0,14.3-8.4,14.3-8.4
	V51.4z M154.6,30.2v60.5h-14.2v-7.9c0,0-5.2,9.4-18.3,9.4c-15.7,0-29.5-13.2-29.5-31.8c0-18.6,13.8-31.8,29.5-31.8
	c12.6,0,18.3,9.5,18.3,9.5v-7.9H154.6z"/>
<path class="st0" d="M200.8,30.6l-5.4,13.8c0,0-2.8-1.4-7.3-1.4c-9.3,0-13.5,8.2-13.5,8.2v39.6h-15.3V30.2h14.6V39
	c0,0,5.2-10.3,16.5-10.3C195.8,28.7,200.8,30.6,200.8,30.6"/>
<path class="st0" d="M243.7,70.6l10.1,10.2c0,0-8.7,11.5-25,11.5c-18.1,0-32.6-14-32.6-31.8c0-17.9,14.4-31.8,32.6-31.8
	c16.2,0,24.8,11.2,24.8,11.2l-10.6,9.4c0,0-5-6.4-14.2-6.4c-10.3,0-17,8-17,17.5c0,9.5,6.6,17.5,17,17.5S243.7,70.6,243.7,70.6"/>
<path class="st0" d="M312.4,51.5v39.2h-15.3V55.4c0-8.7-5.4-12.4-12-12.4c-7.9,0-12,7.9-12,7.9v39.8h-15.3V1H273v36.5
	c0,0,5.4-8.8,17.1-8.8C301.9,28.7,312.4,37,312.4,51.5"/>
<path class="st0" d="M312.4,51.5v39.2h-15.3V55.4c0-8.7-5.4-12.4-12-12.4c-7.9,0-12,7.9-12,7.9v39.8h-15.3V1H273v36.5
	c0,0,5.4-8.8,17.1-8.8C301.9,28.7,312.4,37,312.4,51.5z"/>
<path class="st0" d="M362.8,54.9c-0.3-5.2-5.1-12.3-15.2-12.3c-9.8,0-14.3,6.9-14.8,12.3H362.8z M378.2,60.2c0,1.1,0,3.4-0.1,5.7
	h-45.2c1.2,5.4,7.4,12.3,17,12.3c10.6,0,16.6-6.1,16.6-6.1l7.7,11.5c0,0-9.6,8.7-24.3,8.7c-18.4,0-32.6-14-32.6-31.8
	c0-17.8,12.9-31.8,30.4-31.8C364.2,28.7,378.2,41.6,378.2,60.2"/>
<g>
	<path class="st0" d="M443.5,30.9c0.6,0,1.3,0.2,1.9,0.5c0.6,0.3,1.1,0.8,1.4,1.4c0.3,0.6,0.5,1.3,0.5,1.9c0,0.7-0.2,1.3-0.5,1.9
		c-0.3,0.6-0.8,1.1-1.4,1.4c-0.6,0.3-1.2,0.5-1.9,0.5c-0.7,0-1.3-0.2-1.9-0.5c-0.6-0.3-1.1-0.8-1.4-1.4c-0.3-0.6-0.5-1.2-0.5-1.9
		c0-0.7,0.2-1.3,0.5-1.9c0.3-0.6,0.8-1.1,1.4-1.4C442.2,31,442.9,30.9,443.5,30.9z M443.5,31.5c-0.5,0-1.1,0.1-1.6,0.4
		c-0.5,0.3-0.9,0.7-1.2,1.2c-0.3,0.5-0.4,1-0.4,1.6c0,0.6,0.1,1.1,0.4,1.6c0.3,0.5,0.7,0.9,1.2,1.2c0.5,0.3,1,0.4,1.6,0.4
		s1.1-0.1,1.6-0.4c0.5-0.3,0.9-0.7,1.2-1.2c0.3-0.5,0.4-1,0.4-1.6c0-0.6-0.1-1.1-0.4-1.6c-0.3-0.5-0.7-0.9-1.2-1.2
		C444.6,31.6,444,31.5,443.5,31.5z M441.8,36.8v-4.1h1.4c0.5,0,0.8,0,1.1,0.1c0.2,0.1,0.4,0.2,0.5,0.4c0.1,0.2,0.2,0.4,0.2,0.6
		c0,0.3-0.1,0.6-0.3,0.8c-0.2,0.2-0.5,0.3-0.9,0.4c0.1,0.1,0.3,0.1,0.3,0.2c0.2,0.2,0.4,0.4,0.6,0.8l0.5,0.8h-0.8l-0.4-0.7
		c-0.3-0.5-0.5-0.8-0.7-1c-0.1-0.1-0.3-0.1-0.5-0.1h-0.4v1.8H441.8z M442.5,34.5h0.8c0.4,0,0.6-0.1,0.8-0.2c0.1-0.1,0.2-0.3,0.2-0.5
		c0-0.1,0-0.2-0.1-0.3c-0.1-0.1-0.2-0.2-0.3-0.2c-0.1,0-0.3-0.1-0.7-0.1h-0.8V34.5z"/>
</g>
</svg>
