<svg width="191" height="22" viewBox="0 0 191 22" fill="none" xmlns="http://www.w3.org/2000/svg">
<g clip-path="url(#clip0)">
<path d="M3.2835 1.40234L9.44738 10.9341L15.6324 1.40234H18.6191V20.3388H15.3783V7.62977L9.44738 16.632L3.53768 7.62977V20.3388H0.296875V1.40234H3.2835Z" fill="white"/>
<path d="M79.5791 7.52344H83.3919L86.0184 11.4844L88.5814 7.52344H92.2882L87.84 13.7297L92.5635 20.3384H88.7085L85.8066 15.9749L82.9047 20.3384H79.2402L83.9849 13.7297L79.5791 7.52344Z" fill="white"/>
<path d="M29.5071 11.888C29.5071 11.888 28.5539 10.1088 26.4781 10.1088C24.2964 10.1088 22.9408 11.6974 22.9408 13.8156C22.9408 15.9337 24.2964 17.5224 26.4781 17.5224C28.5539 17.5224 29.5071 15.7431 29.5071 15.7431V11.888ZM32.7479 7.3975V20.2124H29.7401V18.5391C29.7401 18.5391 28.6387 20.5302 25.8638 20.5302C22.5383 20.5302 19.6152 17.7342 19.6152 13.7944C19.6152 9.85458 22.5383 7.05859 25.8638 7.05859C28.5327 7.05859 29.7401 9.07086 29.7401 9.07086V7.3975H32.7479V7.3975Z" fill="white"/>
<path d="M42.5326 7.48253L41.3888 10.4056C41.3888 10.4056 40.7957 10.1091 39.8425 10.1091C37.8726 10.1091 36.983 11.846 36.983 11.846V20.2339H33.7422V7.3978H36.8347V9.2618C36.8347 9.2618 37.9362 7.08008 40.3297 7.08008C41.4735 7.08008 42.5326 7.48253 42.5326 7.48253Z" fill="white"/>
<path d="M51.6199 15.9552L53.7593 18.1158C53.7593 18.1158 51.9165 20.5516 48.4638 20.5516C44.6299 20.5516 41.5586 17.5862 41.5586 13.8159C41.5586 10.0243 44.6088 7.08008 48.4638 7.08008C51.8953 7.08008 53.7169 9.45243 53.7169 9.45243L51.4716 11.4435C51.4716 11.4435 50.4126 10.0879 48.4638 10.0879C46.2821 10.0879 44.8629 11.7824 44.8629 13.7947C44.8629 15.8069 46.2609 17.5015 48.4638 17.5015C50.6667 17.5015 51.6199 15.9552 51.6199 15.9552Z" fill="white"/>
<path d="M66.1707 11.9077V20.2109H62.9299V12.7338C62.9299 10.891 61.7861 10.1073 60.3881 10.1073C58.7147 10.1073 57.8463 11.7806 57.8463 11.7806V20.2109H54.6055V1.21094H57.8251V8.94226C57.8251 8.94226 58.9689 7.07827 61.4472 7.07827C63.9466 7.07827 66.1707 8.83636 66.1707 11.9077Z" fill="white"/>
<path d="M66.1707 11.9077V20.2109H62.9299V12.7338C62.9299 10.891 61.7861 10.1073 60.3881 10.1073C58.7147 10.1073 57.8463 11.7806 57.8463 11.7806V20.2109H54.6055V1.21094H57.8251V8.94226C57.8251 8.94226 58.9689 7.07827 61.4472 7.07827C63.9466 7.07827 66.1707 8.83636 66.1707 11.9077Z" fill="white"/>
<path d="M76.8467 12.6297C76.7831 11.5282 75.7664 10.0243 73.6271 10.0243C71.5512 10.0243 70.5981 11.4859 70.4922 12.6297H76.8467V12.6297ZM80.1087 13.7523C80.1087 13.9853 80.1087 14.4725 80.0875 14.9597H70.5133C70.7675 16.1035 72.0808 17.565 74.1142 17.565C76.3595 17.565 77.6304 16.2729 77.6304 16.2729L79.2614 18.7088C79.2614 18.7088 77.2279 20.5516 74.1142 20.5516C70.2168 20.5516 67.209 17.5862 67.209 13.8159C67.209 10.0455 69.9414 7.08008 73.6482 7.08008C77.1432 7.08008 80.1087 9.81252 80.1087 13.7523Z" fill="white"/>
<path d="M93.9416 7.54492C94.0687 7.54492 94.217 7.58729 94.3441 7.65083C94.4712 7.71438 94.5771 7.82028 94.6406 7.94737C94.7042 8.07447 94.7465 8.22274 94.7465 8.34983C94.7465 8.4981 94.7042 8.62519 94.6406 8.75228C94.5771 8.87937 94.4712 8.98528 94.3441 9.04883C94.217 9.11237 94.0899 9.15473 93.9416 9.15473C93.7933 9.15473 93.6663 9.11237 93.5392 9.04883C93.4121 8.98528 93.3062 8.87937 93.2426 8.75228C93.1791 8.62519 93.1367 8.4981 93.1367 8.34983C93.1367 8.20156 93.1791 8.07447 93.2426 7.94737C93.3062 7.82028 93.4121 7.71438 93.5392 7.65083C93.6663 7.5661 93.8145 7.54492 93.9416 7.54492ZM93.9416 7.67201C93.8357 7.67201 93.7086 7.69319 93.6027 7.75674C93.4968 7.82028 93.4121 7.90501 93.3485 8.01092C93.285 8.11683 93.2638 8.22274 93.2638 8.34983C93.2638 8.47692 93.285 8.58283 93.3485 8.68874C93.4121 8.79464 93.4968 8.87937 93.6027 8.94292C93.7086 9.00646 93.8145 9.02764 93.9416 9.02764C94.0687 9.02764 94.1746 9.00646 94.2805 8.94292C94.3864 8.87937 94.4712 8.79464 94.5347 8.68874C94.5982 8.58283 94.6194 8.47692 94.6194 8.34983C94.6194 8.22274 94.5982 8.11683 94.5347 8.01092C94.4712 7.90501 94.3864 7.82028 94.2805 7.75674C94.1746 7.69319 94.0475 7.67201 93.9416 7.67201ZM93.5815 8.79464V7.92619H93.8781C93.984 7.92619 94.0475 7.92619 94.1111 7.94737C94.1534 7.96856 94.1958 7.98974 94.217 8.0321C94.2382 8.07447 94.2593 8.11683 94.2593 8.15919C94.2593 8.22274 94.2382 8.28628 94.1958 8.32865C94.1534 8.37101 94.0899 8.39219 94.0052 8.41337C94.0263 8.43456 94.0687 8.43456 94.0687 8.45574C94.1111 8.4981 94.1534 8.54046 94.1958 8.62519L94.3017 8.79464H94.1323L94.0475 8.64637C93.984 8.54046 93.9416 8.47692 93.8993 8.43455C93.8781 8.41337 93.8357 8.41337 93.7933 8.41337H93.7086V8.79464H93.5815V8.79464ZM93.7298 8.30746H93.8993C93.984 8.30746 94.0263 8.28628 94.0687 8.2651C94.0899 8.24392 94.1111 8.20156 94.1111 8.15919C94.1111 8.13801 94.1111 8.11683 94.0899 8.09565C94.0687 8.07447 94.0475 8.05328 94.0263 8.05328C94.0052 8.05328 93.9628 8.0321 93.8781 8.0321H93.7086V8.30746H93.7298Z" fill="white"/>
</g>
<rect x="108" width="82.7619" height="22" rx="2" fill="white"/>
<path d="M124.82 5.82812V7.60938H119.227V10.4219H124.555V12.2734H119.203V15.2031H124.93V17H117.172V5.82812H124.82ZM126.844 17V5.82812H128.914L134.812 13.9688V5.82812H136.805V17H134.734L128.836 8.6875V17H126.844ZM148.062 16.4844C147.161 16.8802 146.034 17.0781 144.68 17.0781C140.737 17.0781 138.766 15.138 138.766 11.2578C138.766 7.58594 140.771 5.75 144.781 5.75C146.005 5.75 147.099 5.93229 148.062 6.29688V8.17188C147.099 7.75521 146.057 7.54688 144.938 7.54688C142.255 7.54688 140.914 8.78385 140.914 11.2578C140.914 13.9401 142.18 15.2812 144.711 15.2812C145.086 15.2812 145.513 15.2188 145.992 15.0938V11.8438H148.062V16.4844ZM151.164 17H149.039L153.781 5.82812H156.008L160.852 17H158.625L157.352 13.9531H153.641L154.352 12.1562H156.602L154.844 7.96094L151.164 17ZM171.125 16.4844C170.224 16.8802 169.096 17.0781 167.742 17.0781C163.799 17.0781 161.828 15.138 161.828 11.2578C161.828 7.58594 163.833 5.75 167.844 5.75C169.068 5.75 170.161 5.93229 171.125 6.29688V8.17188C170.161 7.75521 169.12 7.54688 168 7.54688C165.318 7.54688 163.977 8.78385 163.977 11.2578C163.977 13.9401 165.242 15.2812 167.773 15.2812C168.148 15.2812 168.576 15.2188 169.055 15.0938V11.8438H171.125V16.4844ZM180.727 5.82812V7.60938H175.133V10.4219H180.461V12.2734H175.109V15.2031H180.836V17H173.078V5.82812H180.727Z" fill="#0070FF"/>
<defs>
<clipPath id="clip0">
<rect width="95" height="19.8049" fill="white" transform="translate(0 1)"/>
</clipPath>
</defs>
</svg>
